<svg width="113" height="118" viewBox="0 0 113 118" fill="none" xmlns="http://www.w3.org/2000/svg">
<path d="M66.5844 4.83699C69.8088 8.84397 75.0816 10.565 80.035 9.22713C88.0076 7.07391 95.9266 12.8533 96.3515 21.1354C96.6154 26.2808 99.8744 30.7867 104.665 32.6288C112.375 35.5943 115.399 44.9455 110.897 51.8967C108.1 56.2155 108.1 61.7848 110.897 66.1035C115.399 73.0547 112.375 82.4059 104.665 85.3711C99.8744 87.2136 96.6154 91.7191 96.3515 96.8649C95.9266 105.147 88.0076 110.926 80.035 108.773C75.0816 107.435 69.8088 109.156 66.5844 113.163C61.3946 119.612 51.606 119.612 46.4159 113.163C43.1914 109.156 37.918 107.435 32.9647 108.773C24.9923 110.926 17.0734 105.147 16.6485 96.8649C16.3845 91.7191 13.1255 87.2136 8.33548 85.3711C0.625712 82.4059 -2.39924 73.0547 2.103 66.1035C4.90054 61.7848 4.90054 56.2155 2.103 51.8967C-2.39924 44.9455 0.625712 35.5943 8.33548 32.6288C13.1255 30.7867 16.3845 26.2808 16.6485 21.1354C17.0734 12.8533 24.9923 7.07391 32.9647 9.22713C37.918 10.565 43.1914 8.84397 46.4159 4.83699C51.606 -1.61233 61.3946 -1.61233 66.5844 4.83699Z" fill="#0182FE"/>
</svg>
